<?xml version="1.0" encoding="UTF-8"?>
<svg xmlns="http://www.w3.org/2000/svg" xmlns:xlink="http://www.w3.org/1999/xlink" width="30pt" height="30.000001pt" viewBox="0 0 30 30.000001" version="1.2">
<defs>
<clipPath id="clip1">
  <path d="M 1.933594 1.453125 L 28.066406 1.453125 L 28.066406 27.582031 L 1.933594 27.582031 Z M 1.933594 1.453125 "/>
</clipPath>
</defs>
<g id="surface1">
<g clip-path="url(#clip1)" clip-rule="nonzero">
<path style=" stroke:none;fill-rule:nonzero;fill:rgb(29.019165%,73.728943%,58.81958%);fill-opacity:1;" d="M 1.933594 14.515625 C 1.933594 7.300781 7.785156 1.453125 15 1.453125 C 22.214844 1.453125 28.066406 7.300781 28.066406 14.515625 C 28.066406 21.730469 22.214844 27.582031 15 27.582031 C 7.785156 27.582031 1.933594 21.730469 1.933594 14.515625 Z M 1.933594 14.515625 "/>
</g>
<path style=" stroke:none;fill-rule:nonzero;fill:rgb(100%,100%,100%);fill-opacity:1;" d="M 22.082031 21.878906 L 10.261719 23.769531 L 7.652344 7.429688 L 19.46875 5.539062 Z M 22.082031 21.878906 "/>
<path style=" stroke:none;fill-rule:nonzero;fill:rgb(96.859741%,85.099792%,54.508972%);fill-opacity:1;" d="M 21.382812 9.777344 L 20.339844 9.554688 L 20.320312 9.652344 L 21.367188 9.867188 Z M 21.382812 9.777344 "/>
<path style=" stroke:none;fill-rule:nonzero;fill:rgb(96.859741%,85.099792%,54.508972%);fill-opacity:1;" d="M 21.183594 7.953125 L 20.339844 9.554688 L 21.382812 9.777344 Z M 21.183594 7.953125 "/>
<path style=" stroke:none;fill-rule:nonzero;fill:rgb(38.42926%,39.219666%,38.819885%);fill-opacity:1;" d="M 21.183594 7.945312 L 20.8125 8.644531 L 21.273438 8.738281 Z M 21.183594 7.945312 "/>
<path style=" stroke:none;fill-rule:nonzero;fill:rgb(94.898987%,74.508667%,24.308777%);fill-opacity:1;" d="M 18.511719 23.511719 C 18.464844 23.726562 18.292969 23.695312 18.070312 23.652344 L 17.816406 23.601562 C 17.601562 23.550781 17.421875 23.511719 17.46875 23.292969 L 17.507812 23.121094 C 17.554688 22.90625 18.589844 23.121094 18.550781 23.335938 Z M 18.511719 23.511719 "/>
<path style=" stroke:none;fill-rule:nonzero;fill:rgb(50.588989%,50.979614%,50.979614%);fill-opacity:1;" d="M 18.695312 22.636719 L 17.652344 22.421875 L 17.507812 23.113281 L 18.554688 23.335938 Z M 18.695312 22.636719 "/>
<path style=" stroke:none;fill-rule:nonzero;fill:rgb(64.309692%,64.709473%,64.309692%);fill-opacity:1;" d="M 18.695312 22.636719 L 17.652344 22.421875 L 17.628906 22.527344 L 18.675781 22.746094 Z M 18.695312 22.636719 "/>
<path style=" stroke:none;fill-rule:nonzero;fill:rgb(64.309692%,64.709473%,64.309692%);fill-opacity:1;" d="M 17.601562 22.65625 L 18.648438 22.875 L 18.625 22.980469 L 17.578125 22.761719 Z M 17.601562 22.65625 "/>
<path style=" stroke:none;fill-rule:nonzero;fill:rgb(64.309692%,64.709473%,64.309692%);fill-opacity:1;" d="M 17.558594 22.890625 L 18.601562 23.109375 L 18.582031 23.21875 L 17.535156 23 Z M 17.558594 22.890625 "/>
<path style=" stroke:none;fill-rule:nonzero;fill:rgb(90.979004%,28.239441%,28.62854%);fill-opacity:1;" d="M 21.144531 9.808594 L 18.46875 22.613281 L 18.695312 22.664062 L 21.371094 9.855469 L 21.335938 9.671875 Z M 21.144531 9.808594 "/>
<path style=" stroke:none;fill-rule:nonzero;fill:rgb(90.979004%,28.239441%,28.62854%);fill-opacity:1;" d="M 20.488281 9.671875 L 17.8125 22.476562 L 18.117188 22.542969 L 20.792969 9.734375 L 20.671875 9.53125 Z M 20.488281 9.671875 "/>
<path style=" stroke:none;fill-rule:nonzero;fill:rgb(94.119263%,39.99939%,40.779114%);fill-opacity:1;" d="M 20.3125 9.640625 L 17.644531 22.441406 L 17.8125 22.476562 L 20.488281 9.671875 L 20.398438 9.476562 Z M 20.3125 9.640625 "/>
<path style=" stroke:none;fill-rule:nonzero;fill:rgb(94.119263%,39.99939%,40.779114%);fill-opacity:1;" d="M 20.792969 9.734375 L 18.117188 22.542969 L 18.46875 22.613281 L 21.144531 9.808594 L 21.003906 9.601562 Z M 20.792969 9.734375 "/>
<path style=" stroke:none;fill-rule:nonzero;fill:rgb(20.779419%,44.309998%,50.19989%);fill-opacity:1;" d="M 18.660156 7.953125 L 9.019531 9.492188 L 8.921875 8.882812 L 18.558594 7.34375 Z M 18.660156 7.953125 "/>
<path style=" stroke:none;fill-rule:nonzero;fill:rgb(20.779419%,44.309998%,50.19989%);fill-opacity:1;" d="M 18.9375 9.476562 L 9.296875 11.015625 L 9.203125 10.410156 L 18.839844 8.867188 Z M 18.9375 9.476562 "/>
<path style=" stroke:none;fill-rule:nonzero;fill:rgb(20.779419%,44.309998%,50.19989%);fill-opacity:1;" d="M 19.191406 11.097656 L 9.554688 12.636719 L 9.457031 12.027344 L 19.097656 10.488281 Z M 19.191406 11.097656 "/>
<path style=" stroke:none;fill-rule:nonzero;fill:rgb(20.779419%,44.309998%,50.19989%);fill-opacity:1;" d="M 9.710938 13.597656 L 15.023438 12.746094 L 15.121094 13.355469 L 9.804688 14.203125 Z M 9.710938 13.597656 "/>
</g>
</svg>
